<?xml version="1.0" encoding="UTF-8" standalone="no"?>
<!-- Created with sK1/UniConvertor (http://sk1project.org/) -->

<svg
   xmlns:dc="http://purl.org/dc/elements/1.1/"
   xmlns:cc="http://creativecommons.org/ns#"
   xmlns:rdf="http://www.w3.org/1999/02/22-rdf-syntax-ns#"
   xmlns:svg="http://www.w3.org/2000/svg"
   xmlns="http://www.w3.org/2000/svg"
   xmlns:sodipodi="http://sodipodi.sourceforge.net/DTD/sodipodi-0.dtd"
   xmlns:inkscape="http://www.inkscape.org/namespaces/inkscape"
   width="1024"
   height="768"
   viewBox="0 0 819.20003 614.39997"
   id="svg3205"
   version="1.1"
   inkscape:version="0.48.1 r9760"
   sodipodi:docname="wlarch.svg"
   style="fill-rule:evenodd"
   inkscape:export-filename="/home/neil/c/fosdem-2012/wlarch.png"
   inkscape:export-xdpi="90"
   inkscape:export-ydpi="90">
  <metadata
     id="metadata3361">
    <rdf:RDF>
      <cc:Work
         rdf:about="">
        <dc:format>image/svg+xml</dc:format>
        <dc:type
           rdf:resource="http://purl.org/dc/dcmitype/StillImage" />
        <dc:title></dc:title>
      </cc:Work>
    </rdf:RDF>
  </metadata>
  <sodipodi:namedview
     pagecolor="#000000"
     bordercolor="#666666"
     borderopacity="1"
     objecttolerance="10"
     gridtolerance="10"
     guidetolerance="10"
     inkscape:pageopacity="1"
     inkscape:pageshadow="2"
     inkscape:window-width="1078"
     inkscape:window-height="808"
     id="namedview3359"
     showgrid="false"
     inkscape:zoom="0.56163429"
     inkscape:cx="276.79698"
     inkscape:cy="538.12215"
     inkscape:window-x="120"
     inkscape:window-y="127"
     inkscape:window-maximized="0"
     inkscape:current-layer="svg3205" />
  <defs
     id="defs3207">
    <marker
       id="ArrowEnd"
       viewBox="0 0 10 10"
       refX="0"
       refY="5"
       markerUnits="strokeWidth"
       markerWidth="4"
       markerHeight="3"
       orient="auto">
      <path
         d="M 0,0 10,5 0,10 z"
         id="path3210"
         inkscape:connector-curvature="0" />
    </marker>
    <marker
       id="ArrowStart"
       viewBox="0 0 10 10"
       refX="10"
       refY="5"
       markerUnits="strokeWidth"
       markerWidth="4"
       markerHeight="3"
       orient="auto">
      <path
         d="M 10,0 0,5 10,10 z"
         id="path3213"
         inkscape:connector-curvature="0" />
    </marker>
  </defs>
  <path
     inkscape:connector-curvature="0"
     id="path3217"
     d="m 208.8601,60.531901 0,44.553269 c 0,14.85109 7.42555,22.27664 22.27664,22.27664 l 133.65983,0 c 14.85109,0 22.27664,-7.42555 22.27664,-22.27664 l 0,-44.553269 c 0,-14.86124 -7.42555,-22.276712 -22.27664,-22.276712 l -133.65983,0 c -14.85109,0 -22.27664,7.415472 -22.27664,22.276712 z"
     style="fill:#5f9e9f;stroke:none" />
  <path
     inkscape:connector-curvature="0"
     id="path3219"
     d="m 208.8601,60.531901 0,44.553269 c 0,14.85109 7.42555,22.27664 22.27664,22.27664 l 133.65983,0 c 14.85109,0 22.27664,-7.42555 22.27664,-22.27664 l 0,-44.553269 c 0,-14.86124 -7.42555,-22.276712 -22.27664,-22.276712 l -133.65983,0 c -14.85109,0 -22.27664,7.415472 -22.27664,22.276712 z"
     style="fill:none;stroke:#5f9e9f;stroke-width:1.39228988" />
  <path
     inkscape:connector-curvature="0"
     id="path3221"
     d="m 214.42926,43.824422 167.07479,0 0,77.968228 -167.07479,0 0,-77.968228 z"
     style="fill:#5f9e9f;stroke:none" />
  <path
     inkscape:connector-curvature="0"
     id="path3223"
     d="m 214.42926,43.824422 167.07479,0 0,77.968228 -167.07479,0 0,-77.968228 z"
     style="fill:none;stroke:#5f9e9f;stroke-width:1.39228988" />
  <path
     inkscape:connector-curvature="0"
     id="path3227"
     d="m 409.34984,60.531901 0,44.553269 c 0,14.85109 7.42555,22.27664 22.27664,22.27664 l 133.65983,0 c 14.85109,0 22.27664,-7.42555 22.27664,-22.27664 l 0,-44.553269 c 0,-14.86124 -7.42555,-22.276712 -22.27664,-22.276712 l -133.65983,0 c -14.85109,0 -22.27664,7.415472 -22.27664,22.276712 z"
     style="fill:#5f9e9f;stroke:none" />
  <path
     inkscape:connector-curvature="0"
     id="path3229"
     d="m 409.34984,60.531901 0,44.553269 c 0,14.85109 7.42555,22.27664 22.27664,22.27664 l 133.65983,0 c 14.85109,0 22.27664,-7.42555 22.27664,-22.27664 l 0,-44.553269 c 0,-14.86124 -7.42555,-22.276712 -22.27664,-22.276712 l -133.65983,0 c -14.85109,0 -22.27664,7.415472 -22.27664,22.276712 z"
     style="fill:none;stroke:#5f9e9f;stroke-width:1.39228988" />
  <path
     inkscape:connector-curvature="0"
     id="path3231"
     d="m 414.919,43.824422 167.07479,0 0,77.968228 -167.07479,0 0,-77.968228 z"
     style="fill:#5f9e9f;stroke:none" />
  <path
     inkscape:connector-curvature="0"
     id="path3233"
     d="m 414.919,43.824422 167.07479,0 0,77.968228 -167.07479,0 0,-77.968228 z"
     style="fill:none;stroke:#5f9e9f;stroke-width:1.39228988" />
  <path
     inkscape:connector-curvature="0"
     id="path3237"
     d="m 609.83959,60.531901 0,44.553269 c 0,14.85109 7.42554,22.27664 22.27663,22.27664 l 133.65983,0 c 14.85109,0 22.27664,-7.42555 22.27664,-22.27664 l 0,-44.553269 c 0,-14.86124 -7.42555,-22.276712 -22.27664,-22.276712 l -133.65983,0 c -14.85109,0 -22.27663,7.415472 -22.27663,22.276712 z"
     style="fill:#5f9e9f;stroke:none" />
  <path
     inkscape:connector-curvature="0"
     id="path3239"
     d="m 609.83959,60.531901 0,44.553269 c 0,14.85109 7.42554,22.27664 22.27663,22.27664 l 133.65983,0 c 14.85109,0 22.27664,-7.42555 22.27664,-22.27664 l 0,-44.553269 c 0,-14.86124 -7.42555,-22.276712 -22.27664,-22.276712 l -133.65983,0 c -14.85109,0 -22.27663,7.415472 -22.27663,22.276712 z"
     style="fill:none;stroke:#5f9e9f;stroke-width:1.39228988" />
  <path
     inkscape:connector-curvature="0"
     id="path3241"
     d="m 615.40875,43.824422 167.07478,0 0,77.968228 -167.07478,0 0,-77.968228 z"
     style="fill:#5f9e9f;stroke:none" />
  <path
     inkscape:connector-curvature="0"
     id="path3243"
     d="m 615.40875,43.824422 167.07478,0 0,77.968228 -167.07478,0 0,-77.968228 z"
     style="fill:none;stroke:#5f9e9f;stroke-width:1.39228988" />
  <path
     inkscape:connector-curvature="0"
     id="path3247"
     d="m 337.78552,238.7778 0,44.48817 c 0,14.82923 8.90385,22.24385 26.71154,22.24385 l 160.26922,0 c 17.80768,0 26.71152,-7.41462 26.71152,-22.24385 l 0,-44.48817 c 0,-14.83937 -8.90384,-22.24385 -26.71152,-22.24385 l -160.26922,0 c -17.80769,0 -26.71154,7.40448 -26.71154,22.24385 z"
     style="fill:#5f9e9f;stroke:none" />
  <path
     inkscape:connector-curvature="0"
     id="path3249"
     d="m 337.78552,238.7778 0,44.48817 c 0,14.82923 8.90385,22.24385 26.71154,22.24385 l 160.26922,0 c 17.80768,0 26.71152,-7.41462 26.71152,-22.24385 l 0,-44.48817 c 0,-14.83937 -8.90384,-22.24385 -26.71152,-22.24385 l -160.26922,0 c -17.80769,0 -26.71154,7.40448 -26.71154,22.24385 z"
     style="fill:none;stroke:#5f9e9f;stroke-width:1.52347159" />
  <path
     inkscape:connector-curvature="0"
     id="path3267"
     d="M 397.65065,200.87199 354.21913,142.95793"
     style="fill:none;stroke:#2e4f4f;stroke-width:5.56915951" />
  <path
     inkscape:connector-curvature="0"
     id="path3277"
     d="m 462.62319,199.03566 27.11314,-54.24114"
     style="fill:none;stroke:#2e4f4f;stroke-width:5.56915951" />
  <path
     inkscape:connector-curvature="0"
     id="path3279"
     d="m 454.61533,215.40005 1.24749,-21.17518 14.93773,7.47505 -16.18522,13.70013 z"
     style="fill:#2e4f4f;fill-opacity:1;stroke:none" />
  <path
     inkscape:connector-curvature="0"
     id="path3283"
     d="m 497.74419,127.36181 -1.2475,21.16528 -14.93772,-7.4654 16.18522,-13.69988 z"
     style="fill:#2e4f4f;fill-opacity:1;stroke:none" />
  <path
     inkscape:connector-curvature="0"
     id="path3287"
     d="M 515.37674,206.8003 637.47252,137.02987"
     style="fill:none;stroke:#2e4f4f;stroke-width:5.56915951" />
  <path
     inkscape:connector-curvature="0"
     id="path3289"
     d="m 498.4564,216.46836 12.78184,-16.93049 8.28691,14.51224 -21.06875,2.41825 z"
     style="fill:#2e4f4f;fill-opacity:1;stroke:none" />
  <path
     inkscape:connector-curvature="0"
     id="path3293"
     d="m 653.68065,127.36181 -12.78184,16.92034 -8.28691,-14.50209 21.06875,-2.41825 z"
     style="fill:#2e4f4f;fill-opacity:1;stroke:none" />
  <path
     inkscape:connector-curvature="0"
     id="path3307"
     d="m 361.55131,450.37356 0,66.82991 c 0,22.27664 10.21013,33.41496 30.63038,33.41496 l 183.78226,0 c 20.42025,0 30.63038,-11.13832 30.63038,-33.41496 l 0,-66.82991 c 0,-22.27664 -10.21013,-33.41496 -30.63038,-33.41496 l -183.78226,0 c -20.42025,0 -30.63038,11.13832 -30.63038,33.41496 z"
     style="fill:#5f9e9f;stroke:none" />
  <path
     inkscape:connector-curvature="0"
     id="path3309"
     d="m 361.55131,450.37356 0,66.82991 c 0,22.27664 10.21013,33.41496 30.63038,33.41496 l 183.78226,0 c 20.42025,0 30.63038,-11.13832 30.63038,-33.41496 l 0,-66.82991 c 0,-22.27664 -10.21013,-33.41496 -30.63038,-33.41496 l -183.78226,0 c -20.42025,0 -30.63038,11.13832 -30.63038,33.41496 z"
     style="fill:none;stroke:#5f9e9f;stroke-width:1.39228988" />
  <path
     inkscape:connector-curvature="0"
     id="path3311"
     d="m 369.90505,425.31234 229.72907,0 0,116.95235 -229.72907,0 0,-116.95235 z"
     style="fill:#5f9e9f;stroke:none" />
  <path
     inkscape:connector-curvature="0"
     id="path3313"
     d="m 369.90505,425.31234 229.72907,0 0,116.95235 -229.72907,0 0,-116.95235 z"
     style="fill:none;stroke:#5f9e9f;stroke-width:1.39228988" />
  <path
     inkscape:connector-curvature="0"
     id="path3315"
     d="m 452.16624,487.15229 2.97789,-2.93805 6.41988,9.31906 2.74597,0 -7.50277,-10.78931 7.42554,-7.42555 -3.01675,0 -9.04976,9.24233 0,-9.24233 -2.32048,0 0,18.21486 2.32048,0 0,-6.38101 z m 25.21616,0.54206 c 0,-2.00985 -0.15593,-3.21031 -0.50246,-4.17563 -0.85146,-2.12866 -2.86255,-3.44298 -5.29912,-3.44298 -3.63529,0 -5.99464,2.78458 -5.99464,7.07655 0,4.29444 2.28187,6.96268 5.91742,6.96268 3.0165,0 5.10407,-1.70292 5.60901,-4.56423 l -2.08955,0 c -0.58018,1.74005 -1.74055,2.63112 -3.44224,2.63112 -1.31481,0 -2.43632,-0.58167 -3.13259,-1.70293 -0.5027,-0.73513 -0.6574,-1.47026 -0.69626,-2.78458 l 9.63043,0 z m -9.59157,-1.70045 c 0.19331,-2.43805 1.66307,-3.98504 3.75138,-3.98504 2.0497,0 3.6353,1.70292 3.6353,3.8291 0,0.0396 0,0.11634 -0.0386,0.15594 l -7.34807,0 z m 12.46279,-5.53203 0,13.07143 2.08905,0 0,-6.80675 c 0,-1.85638 0.46286,-3.09397 1.47026,-3.7895 0.65592,-0.50246 1.27472,-0.6188 2.70537,-0.65592 l 0,-2.12866 c -0.34652,-0.0371 -0.50246,-0.0767 -0.77226,-0.0767 -1.35392,0 -2.39845,0.81186 -3.59644,2.74498 l 0,-2.35885 -1.89598,0 z m 8.34383,0 0,13.07143 2.08906,0 0,-7.23 c 0,-2.67072 1.43065,-4.41078 3.55683,-4.41078 1.66333,0 2.70785,1.0074 2.70785,2.59152 l 0,9.04926 2.04945,0 0,-9.90072 c 0,-2.16579 -1.62372,-3.55684 -4.1385,-3.55684 -1.93312,0 -3.17071,0.73513 -4.33157,2.59152 l 0,-2.20539 -1.93312,0 z m 24.99439,7.23248 c 0,-2.00985 -0.15593,-3.21031 -0.50246,-4.17563 -0.85146,-2.12866 -2.86379,-3.44298 -5.29937,-3.44298 -3.63604,0 -5.99489,2.78458 -5.99489,7.07655 0,4.29444 2.28212,6.96268 5.91816,6.96268 3.01725,0 5.10383,-1.70292 5.60629,-4.56423 l -2.08658,0 c -0.58166,1.74005 -1.74005,2.63112 -3.44298,2.63112 -1.31432,0 -2.43557,-0.58167 -3.13358,-1.70293 -0.50246,-0.73513 -0.65592,-1.47026 -0.69552,-2.78458 l 9.63093,0 z m -9.59133,-1.70045 c 0.19307,-2.43805 1.66332,-3.98504 3.7499,-3.98504 2.05193,0 3.63604,1.70292 3.63604,3.8291 0,0.0396 0,0.11634 -0.0371,0.15594 l -7.34882,0 z m 14.51199,-10.67546 -2.08905,0 0,18.21486 2.08905,0 0,-18.21486 z m 1.76976,18.21486"
     style="fill:#000000;stroke:none" />
  <path
     inkscape:connector-curvature="0"
     id="path3317"
     d="m 383.82795,428.09692 0,22.27664 c 0,7.41564 3.71277,11.13831 11.13832,11.13831 l 66.82991,0 c 7.42555,0 11.13832,-3.72267 11.13832,-11.13831 l 0,-22.27664 c 0,-7.42555 -3.71277,-11.13832 -11.13832,-11.13832 l -66.82991,0 c -7.42555,0 -11.13832,3.71277 -11.13832,11.13832 z"
     style="fill:#2e4f4f;stroke:none" />
  <path
     inkscape:connector-curvature="0"
     id="path3319"
     d="m 383.82795,428.09692 0,22.27664 c 0,7.41564 3.71277,11.13831 11.13832,11.13831 l 66.82991,0 c 7.42555,0 11.13832,-3.72267 11.13832,-11.13831 l 0,-22.27664 c 0,-7.42555 -3.71277,-11.13832 -11.13832,-11.13832 l -66.82991,0 c -7.42555,0 -11.13832,3.71277 -11.13832,11.13832 z"
     style="fill:none;stroke:#2e4f4f;stroke-width:1.39228988" />
  <path
     inkscape:connector-curvature="0"
     id="path3321"
     d="m 386.61253,419.74318 83.53739,0 0,38.98412 -83.53739,0 0,-38.98412 z"
     style="fill:#2e4f4f;stroke:none" />
  <path
     inkscape:connector-curvature="0"
     id="path3323"
     d="m 386.61253,419.74318 83.53739,0 0,38.98412 -83.53739,0 0,-38.98412 z"
     style="fill:none;stroke:#2e4f4f;stroke-width:1.39228988" />
  <path
     inkscape:connector-curvature="0"
     id="path3325"
     d="m 405.53406,442.59901 2.97814,-2.93804 6.41988,9.31906 2.74596,0 -7.50302,-10.78932 7.42555,-7.42555 -3.0165,0 -9.05001,9.24233 0,-9.24233 -2.32048,0 0,18.21487 2.32048,0 0,-6.38102 z m 24.09441,6.38102 5.10506,-15.23722 0,15.23722 2.2044,0 0,-18.21487 -3.20982,0 -5.29862,15.85602 -5.3756,-15.85602 -3.24867,0 0,18.21487 2.20439,0 0,-15.23722 5.18229,15.23722 2.43657,0 z m 24.08476,-12.83877 c -0.0386,-3.59644 -2.47518,-5.64589 -6.69091,-5.64589 -3.98331,0 -6.4585,2.04945 -6.4585,5.33649 0,2.20539 1.19873,3.59644 3.55808,4.25484 l 4.52488,1.19799 c 2.32048,0.57919 3.36476,1.50738 3.36476,2.94051 0,0.96532 -0.54157,1.97025 -1.31506,2.51231 -0.69602,0.50247 -1.85639,0.77474 -3.32591,0.77474 -1.97247,0 -3.32614,-0.46534 -4.21548,-1.50987 -0.65765,-0.81186 -0.96705,-1.70045 -0.92819,-2.8217 l -2.20465,0 c 0.0389,1.66332 0.34826,2.78458 1.0829,3.7895 1.23759,1.70045 3.32615,2.59152 6.11073,2.59152 2.16578,0 3.94469,-0.50247 5.10506,-1.39353 1.23759,-0.96532 2.01108,-2.59152 2.01108,-4.17563 0,-2.24252 -1.39229,-3.90584 -3.86747,-4.56424 l -4.56374,-1.23759 c -2.2044,-0.57919 -3.0165,-1.27719 -3.0165,-2.70785 0,-1.81678 1.62421,-3.05437 4.06078,-3.05437 2.90067,0 4.52488,1.31432 4.56374,3.71277 l 2.2044,0 z m 1.81777,12.83877"
     style="fill:#000000;stroke:none" />
  <path
     inkscape:connector-curvature="0"
     id="path3327"
     d="m 495.21114,428.09692 0,22.27664 c 0,7.41564 3.71277,11.13831 11.13832,11.13831 l 66.82991,0 c 7.42555,0 11.13832,-3.72267 11.13832,-11.13831 l 0,-22.27664 c 0,-7.42555 -3.71277,-11.13832 -11.13832,-11.13832 l -66.82991,0 c -7.42555,0 -11.13832,3.71277 -11.13832,11.13832 z"
     style="fill:#2e4f4f;stroke:none" />
  <path
     inkscape:connector-curvature="0"
     id="path3329"
     d="m 495.21114,428.09692 0,22.27664 c 0,7.41564 3.71277,11.13831 11.13832,11.13831 l 66.82991,0 c 7.42555,0 11.13832,-3.72267 11.13832,-11.13831 l 0,-22.27664 c 0,-7.42555 -3.71277,-11.13832 -11.13832,-11.13832 l -66.82991,0 c -7.42555,0 -11.13832,3.71277 -11.13832,11.13832 z"
     style="fill:none;stroke:#2e4f4f;stroke-width:1.39228988" />
  <path
     inkscape:connector-curvature="0"
     id="path3331"
     d="m 497.99572,419.74318 83.53739,0 0,38.98412 -83.53739,0 0,-38.98412 z"
     style="fill:#2e4f4f;stroke:none" />
  <path
     inkscape:connector-curvature="0"
     id="path3333"
     d="m 497.99572,419.74318 83.53739,0 0,38.98412 -83.53739,0 0,-38.98412 z"
     style="fill:none;stroke:#2e4f4f;stroke-width:1.39228988" />
  <path
     inkscape:connector-curvature="0"
     id="path3335"
     d="m 517.74767,443.14107 c 0,-2.00984 -0.15346,-3.21031 -0.50246,-4.17563 -0.84899,-2.12865 -2.86131,-3.44298 -5.29689,-3.44298 -3.63604,0 -5.99489,2.78458 -5.99489,7.07655 0,4.29444 2.28212,6.96269 5.91568,6.96269 3.01725,0 5.10631,-1.70293 5.60877,-4.56424 l -2.08906,0 c -0.57919,1.74005 -1.74005,2.63112 -3.4405,2.63112 -1.3168,0 -2.43805,-0.58167 -3.13358,-1.70293 -0.50246,-0.73513 -0.6584,-1.47025 -0.69553,-2.78458 l 9.62846,0 z m -9.59133,-1.70045 c 0.19554,-2.43805 1.66332,-3.98504 3.75238,-3.98504 2.04945,0 3.63604,1.70293 3.63604,3.82911 0,0.0396 0,0.11633 -0.0396,0.15593 l -7.34882,0 z m 17.84111,7.53941 5.0271,-13.07144 -2.35885,0 -3.67565,10.59626 -3.5197,-10.59626 -2.35885,0 4.60384,13.07144 2.28211,0 z m 17.78914,-18.21487 -2.08906,0 0,6.76715 c -0.88859,-1.31432 -2.28211,-2.00985 -4.02217,-2.00985 -3.40337,0 -5.60628,2.70785 -5.60628,6.88349 0,4.40829 2.16578,7.15575 5.68549,7.15575 1.77718,0 3.05437,-0.69553 4.17563,-2.32172 l 0,1.74005 1.85639,0 0,-18.21487 z m -5.76223,6.69042 c 2.24252,0 3.67317,2.01232 3.67317,5.14343 0,3.01725 -1.43065,4.98997 -3.63604,4.98997 -2.31924,0 -3.82663,-2.01233 -3.82663,-5.0667 0,-3.01725 1.50739,-5.0667 3.7895,-5.0667 z m 20.12076,5.68549 c 0,-2.00984 -0.15594,-3.21031 -0.50246,-4.17563 -0.85147,-2.12865 -2.86379,-3.44298 -5.29937,-3.44298 -3.63604,0 -5.99489,2.78458 -5.99489,7.07655 0,4.29444 2.28212,6.96269 5.91816,6.96269 3.01725,0 5.10383,-1.70293 5.60629,-4.56424 l -2.08658,0 c -0.58167,1.74005 -1.74005,2.63112 -3.44298,2.63112 -1.31432,0 -2.43558,-0.58167 -3.13358,-1.70293 -0.50246,-0.73513 -0.65592,-1.47025 -0.69553,-2.78458 l 9.63094,0 z m -9.59133,-1.70045 c 0.19306,-2.43805 1.66332,-3.98504 3.7499,-3.98504 2.05192,0 3.63604,1.70293 3.63604,3.82911 0,0.0396 0,0.11633 -0.0371,0.15593 l -7.34881,0 z m 17.83863,7.53941 5.0271,-13.07144 -2.35885,0 -3.67317,10.59626 -3.51971,-10.59626 -2.35885,0 4.60137,13.07144 2.28211,0 z m 5.41323,0"
     style="fill:#000000;stroke:none" />
  <path
     inkscape:connector-curvature="0"
     id="path3347"
     d="M 527.53012,398.10514 508.194,324.42887"
     style="fill:none;stroke:#2e4f4f;stroke-width:5.56915951" />
  <path
     inkscape:connector-curvature="0"
     id="path3349"
     d="m 532.48049,416.9586 -13.03184,-16.73718 16.16542,-4.24494 -3.13358,20.98212 z"
     style="fill:#2e4f4f;fill-opacity:1;stroke:none" />
  <path
     inkscape:connector-curvature="0"
     id="path3353"
     d="m 501.64364,305.57541 13.03431,16.72728 -16.16789,4.24494 3.13358,-20.97222 z"
     style="fill:#2e4f4f;fill-opacity:1;stroke:none" />
  <path
     inkscape:connector-curvature="0"
     id="path3275"
     d="m 343.01344,128.17294 18.38021,10.57645 -13.37193,10.02672 -5.00828,-20.60317 z"
     style="fill:#2e4f4f;fill-rule:evenodd;stroke:none" />
  <path
     inkscape:connector-curvature="0"
     id="path3271"
     d="m 408.35496,215.75589 -18.3802,-10.58635 13.37192,-10.01706 5.00828,20.60341 z"
     style="fill:#2e4f4f;fill-rule:evenodd;stroke:none" />
  <text
     xml:space="preserve"
     style="font-size:32px;font-style:normal;font-weight:normal;line-height:125%;letter-spacing:0px;word-spacing:0px;fill:#000000;fill-opacity:1;stroke:none;font-family:Bitstream Vera Sans"
     x="358.42569"
     y="252.59869"
     id="text3507"
     sodipodi:linespacing="125%"><tspan
       sodipodi:role="line"
       id="tspan3509"
       x="358.42569"
       y="252.59869">A wayland</tspan><tspan
       sodipodi:role="line"
       x="358.42569"
       y="292.59869"
       id="tspan3511">compositor</tspan></text>
  <path
     style="fill:none;stroke:#2e4f4f;stroke-width:5.56915951"
     d="M 430.66993,399.52955 411.33381,325.85328"
     id="path3579"
     inkscape:connector-curvature="0" />
  <path
     style="fill:#2e4f4f;fill-opacity:1;stroke:none"
     d="m 435.6203,418.38301 -13.03184,-16.73718 16.16542,-4.24494 -3.13358,20.98212 z"
     id="path3581"
     inkscape:connector-curvature="0" />
  <path
     style="fill:#2e4f4f;fill-opacity:1;stroke:none"
     d="m 404.78345,306.99982 13.03431,16.72728 -16.16789,4.24494 3.13358,-20.97222 z"
     id="path3583"
     inkscape:connector-curvature="0" />
  <text
     xml:space="preserve"
     style="font-size:32px;font-style:normal;font-weight:normal;text-align:center;line-height:125%;letter-spacing:0px;word-spacing:0px;text-anchor:middle;fill:#000000;fill-opacity:1;stroke:none;font-family:Bitstream Vera Sans"
     x="297.39578"
     y="74.546906"
     id="text3585"
     sodipodi:linespacing="125%"><tspan
       sodipodi:role="line"
       id="tspan3587"
       x="297.39578"
       y="74.546906">Wayland</tspan><tspan
       sodipodi:role="line"
       x="297.39578"
       y="114.5469"
       id="tspan3589">client</tspan></text>
  <text
     sodipodi:linespacing="125%"
     id="text3591"
     y="74.546906"
     x="498.23822"
     style="font-size:32px;font-style:normal;font-weight:normal;text-align:center;line-height:125%;letter-spacing:0px;word-spacing:0px;text-anchor:middle;fill:#000000;fill-opacity:1;stroke:none;font-family:Bitstream Vera Sans"
     xml:space="preserve"><tspan
       y="74.546906"
       x="498.23822"
       id="tspan3593"
       sodipodi:role="line">Wayland</tspan><tspan
       id="tspan3595"
       y="114.54691"
       x="498.23822"
       sodipodi:role="line">client</tspan></text>
  <text
     xml:space="preserve"
     style="font-size:32px;font-style:normal;font-weight:normal;text-align:center;line-height:125%;letter-spacing:0px;word-spacing:0px;text-anchor:middle;fill:#000000;fill-opacity:1;stroke:none;font-family:Bitstream Vera Sans"
     x="700.50507"
     y="74.546906"
     id="text3597"
     sodipodi:linespacing="125%"><tspan
       sodipodi:role="line"
       id="tspan3599"
       x="700.50507"
       y="74.546906">Wayland</tspan><tspan
       sodipodi:role="line"
       x="700.50507"
       y="114.54691"
       id="tspan3601">client</tspan></text>
</svg>
