<?xml version="1.0" encoding="UTF-8" standalone="no"?>
<!-- Created with sK1/UniConvertor (http://sk1project.org/) -->

<svg
   xmlns:dc="http://purl.org/dc/elements/1.1/"
   xmlns:cc="http://creativecommons.org/ns#"
   xmlns:rdf="http://www.w3.org/1999/02/22-rdf-syntax-ns#"
   xmlns:svg="http://www.w3.org/2000/svg"
   xmlns="http://www.w3.org/2000/svg"
   xmlns:sodipodi="http://sodipodi.sourceforge.net/DTD/sodipodi-0.dtd"
   xmlns:inkscape="http://www.inkscape.org/namespaces/inkscape"
   width="1024"
   height="768"
   viewBox="0 0 819.20003 614.39997"
   id="svg3205"
   version="1.1"
   inkscape:version="0.48.1 r9760"
   sodipodi:docname="xarch.svg"
   style="fill-rule:evenodd"
   inkscape:export-filename="/home/neil/c/fosdem-2012/xarch.png"
   inkscape:export-xdpi="90"
   inkscape:export-ydpi="90">
  <metadata
     id="metadata3361">
    <rdf:RDF>
      <cc:Work
         rdf:about="">
        <dc:format>image/svg+xml</dc:format>
        <dc:type
           rdf:resource="http://purl.org/dc/dcmitype/StillImage" />
        <dc:title></dc:title>
      </cc:Work>
    </rdf:RDF>
  </metadata>
  <sodipodi:namedview
     pagecolor="#000000"
     bordercolor="#666666"
     borderopacity="1"
     objecttolerance="10"
     gridtolerance="10"
     guidetolerance="10"
     inkscape:pageopacity="1"
     inkscape:pageshadow="2"
     inkscape:window-width="1078"
     inkscape:window-height="808"
     id="namedview3359"
     showgrid="false"
     inkscape:zoom="0.56163429"
     inkscape:cx="276.79698"
     inkscape:cy="538.12215"
     inkscape:window-x="207"
     inkscape:window-y="188"
     inkscape:window-maximized="0"
     inkscape:current-layer="svg3205" />
  <defs
     id="defs3207">
    <marker
       id="ArrowEnd"
       viewBox="0 0 10 10"
       refX="0"
       refY="5"
       markerUnits="strokeWidth"
       markerWidth="4"
       markerHeight="3"
       orient="auto">
      <path
         d="M 0,0 10,5 0,10 z"
         id="path3210"
         inkscape:connector-curvature="0" />
    </marker>
    <marker
       id="ArrowStart"
       viewBox="0 0 10 10"
       refX="10"
       refY="5"
       markerUnits="strokeWidth"
       markerWidth="4"
       markerHeight="3"
       orient="auto">
      <path
         d="M 10,0 0,5 10,10 z"
         id="path3213"
         inkscape:connector-curvature="0" />
    </marker>
  </defs>
  <path
     inkscape:connector-curvature="0"
     id="path3217"
     d="m 30.80829,59.107487 0,44.553273 c 0,14.85109 7.42555,22.27664 22.27664,22.27664 l 133.65983,0 c 14.85109,0 22.27664,-7.42555 22.27664,-22.27664 l 0,-44.553273 c 0,-14.86124 -7.42555,-22.276712 -22.27664,-22.276712 l -133.65983,0 c -14.85109,0 -22.27664,7.415472 -22.27664,22.276712 z"
     style="fill:#5f9e9f;stroke:none" />
  <path
     inkscape:connector-curvature="0"
     id="path3219"
     d="m 30.80829,59.107487 0,44.553273 c 0,14.85109 7.42555,22.27664 22.27664,22.27664 l 133.65983,0 c 14.85109,0 22.27664,-7.42555 22.27664,-22.27664 l 0,-44.553273 c 0,-14.86124 -7.42555,-22.276712 -22.27664,-22.276712 l -133.65983,0 c -14.85109,0 -22.27664,7.415472 -22.27664,22.276712 z"
     style="fill:none;stroke:#5f9e9f;stroke-width:1.39228988" />
  <path
     inkscape:connector-curvature="0"
     id="path3221"
     d="m 36.37745,42.400008 167.07479,0 0,77.968232 -167.07479,0 0,-77.968232 z"
     style="fill:#5f9e9f;stroke:none" />
  <path
     inkscape:connector-curvature="0"
     id="path3223"
     d="m 36.37745,42.400008 167.07479,0 0,77.968232 -167.07479,0 0,-77.968232 z"
     style="fill:none;stroke:#5f9e9f;stroke-width:1.39228988" />
  <path
     inkscape:connector-curvature="0"
     id="path3225"
     d="m 85.81352,81.809859 6.14909,-8.895803 -2.74572,0 -4.71844,7.155753 -4.67957,-7.155753 -2.78458,0 6.03325,8.895803 -6.45874,9.31906 2.82319,0 4.98923,-7.57901 4.98898,7.57901 2.8618,0 -6.45849,-9.31906 z m 30.43682,-3.24991 c -0.69602,-3.98257 -3.01651,-5.915693 -7.00007,-5.915693 -2.43656,0 -4.40879,0.77226 -5.76247,2.242523 -1.66307,1.81678 -2.55265,4.40829 -2.55265,7.34881 0,3.01477 0.92819,5.56916 2.62988,7.34634 1.43115,1.43313 3.21006,2.12865 5.56916,2.12865 4.44765,0 6.96145,-2.39845 7.50302,-7.23248 l -2.39796,0 c -0.19331,1.2772 -0.46409,2.12618 -0.81211,2.82418 -0.77349,1.50739 -2.32048,2.35885 -4.25409,2.35885 -3.63555,0 -5.91742,-2.90091 -5.91742,-7.42554 0,-4.68057 2.20465,-7.54188 5.72386,-7.54188 1.46976,0 2.82344,0.42573 3.59693,1.12126 0.65741,0.61879 1.04404,1.39105 1.31482,2.74498 l 2.3591,0 z m 5.36619,-5.645893 -2.08831,0 0,18.214863 2.08831,0 0,-18.214863 z m 5.5209,5.143423 -2.08856,0 0,13.07144 2.08856,0 0,-13.07144 z m 0,-5.143423 -2.08856,0 0,2.631113 2.08856,0 0,-2.631113 z m 14.60926,12.375903 c 0,-2.00984 -0.1547,-3.21031 -0.50271,-4.17563 -0.85097,-2.12865 -2.86205,-3.44297 -5.29837,-3.44297 -3.63555,0 -5.99465,2.78458 -5.99465,7.07654 0,4.29444 2.28187,6.96268 5.91717,6.96268 3.01676,0 5.10507,-1.70292 5.60778,-4.56423 l -2.08831,0 c -0.58019,1.74005 -1.7403,2.63112 -3.44199,2.63112 -1.31507,0 -2.43657,-0.58167 -3.13284,-1.70293 -0.50271,-0.73513 -0.65741,-1.47026 -0.69602,-2.78458 l 9.62994,0 z m -9.59133,-1.70044 c 0.19331,-2.43806 1.66308,-3.98505 3.75139,-3.98505 2.04994,0 3.63554,1.70293 3.63554,3.82911 0,0.0396 0,0.11633 -0.0386,0.15594 l -7.34832,0 z m 12.46304,-5.53204 0,13.07144 2.08831,0 0,-7.23001 c 0,-2.67072 1.4309,-4.41077 3.55807,-4.41077 1.66308,0 2.70736,1.0074 2.70736,2.59151 l 0,9.04927 2.0497,0 0,-9.90073 c 0,-2.16578 -1.62447,-3.55683 -4.13826,-3.55683 -1.93361,0 -3.1712,0.73512 -4.33157,2.59151 l 0,-2.20539 -1.93361,0 z m 18.5349,0 -2.16578,0 0,-3.59644 -2.04995,0 0,3.59644 -1.77891,0 0,1.70293 1.77891,0 0,9.86112 c 0,1.31432 0.88958,2.08905 2.5138,2.08905 0.50296,0 1.00566,-0.0396 1.70193,-0.19306 l 0,-1.74005 c -0.27078,0.0767 -0.61879,0.11385 -1.00566,0.11385 -0.88958,0 -1.16012,-0.26979 -1.16012,-1.19798 l 0,-8.93293 2.16578,0 0,-1.70293 z m 0.6188,13.07144"
     style="fill:#000000;stroke:none" />
  <path
     inkscape:connector-curvature="0"
     id="path3227"
     d="m 231.29803,59.107487 0,44.553273 c 0,14.85109 7.42555,22.27664 22.27664,22.27664 l 133.65983,0 c 14.85109,0 22.27664,-7.42555 22.27664,-22.27664 l 0,-44.553273 c 0,-14.86124 -7.42555,-22.276712 -22.27664,-22.276712 l -133.65983,0 c -14.85109,0 -22.27664,7.415472 -22.27664,22.276712 z"
     style="fill:#5f9e9f;stroke:none" />
  <path
     inkscape:connector-curvature="0"
     id="path3229"
     d="m 231.29803,59.107487 0,44.553273 c 0,14.85109 7.42555,22.27664 22.27664,22.27664 l 133.65983,0 c 14.85109,0 22.27664,-7.42555 22.27664,-22.27664 l 0,-44.553273 c 0,-14.86124 -7.42555,-22.276712 -22.27664,-22.276712 l -133.65983,0 c -14.85109,0 -22.27664,7.415472 -22.27664,22.276712 z"
     style="fill:none;stroke:#5f9e9f;stroke-width:1.39228988" />
  <path
     inkscape:connector-curvature="0"
     id="path3231"
     d="m 236.86719,42.400008 167.07479,0 0,77.968232 -167.07479,0 0,-77.968232 z"
     style="fill:#5f9e9f;stroke:none" />
  <path
     inkscape:connector-curvature="0"
     id="path3233"
     d="m 236.86719,42.400008 167.07479,0 0,77.968232 -167.07479,0 0,-77.968232 z"
     style="fill:none;stroke:#5f9e9f;stroke-width:1.39228988" />
  <path
     inkscape:connector-curvature="0"
     id="path3235"
     d="m 286.304,81.809859 6.14836,-8.895803 -2.74498,0 -4.72017,7.155753 -4.6781,-7.155753 -2.78458,0 6.03202,8.895803 -6.45775,9.31906 2.82418,0 4.9875,-7.57901 4.98996,7.57901 2.86131,0 -6.45775,-9.31906 z m 30.43732,-3.24991 c -0.698,-3.98257 -3.01725,-5.915693 -7.00229,-5.915693 -2.43558,0 -4.4083,0.77226 -5.76223,2.242523 -1.66332,1.81678 -2.55191,4.40829 -2.55191,7.34881 0,3.01477 0.92819,5.56916 2.63112,7.34634 1.43065,1.43313 3.20783,2.12865 5.56916,2.12865 4.44543,0 6.96021,-2.39845 7.50228,-7.23248 l -2.39846,0 c -0.19306,1.2772 -0.46286,2.12618 -0.81186,2.82418 -0.77473,1.50739 -2.32172,2.35885 -4.25483,2.35885 -3.63605,0 -5.91569,-2.90091 -5.91569,-7.42554 0,-4.68057 2.20291,-7.54188 5.72262,-7.54188 1.47026,0 2.82418,0.42573 3.59644,1.12126 0.6584,0.61879 1.04453,1.39105 1.31432,2.74498 l 2.36133,0 z m 5.36619,-5.645893 -2.08905,0 0,18.214863 2.08905,0 0,-18.214863 z m 5.51966,5.143423 -2.08906,0 0,13.07144 2.08906,0 0,-13.07144 z m 0,-5.143423 -2.08906,0 0,2.631113 2.08906,0 0,-2.631113 z m 14.60852,12.375903 c 0,-2.00984 -0.15346,-3.21031 -0.50246,-4.17563 -0.85146,-2.12865 -2.86131,-3.44297 -5.29689,-3.44297 -3.63604,0 -5.99489,2.78458 -5.99489,7.07654 0,4.29444 2.28212,6.96268 5.91568,6.96268 3.01725,0 5.1063,-1.70292 5.60877,-4.56423 l -2.08906,0 c -0.57919,1.74005 -1.74005,2.63112 -3.4405,2.63112 -1.3168,0 -2.43805,-0.58167 -3.13358,-1.70293 -0.50246,-0.73513 -0.6584,-1.47026 -0.69553,-2.78458 l 9.62846,0 z m -9.59133,-1.70044 c 0.19307,-2.43806 1.66332,-3.98505 3.75238,-3.98505 2.04945,0 3.63604,1.70293 3.63604,3.82911 0,0.0396 0,0.11633 -0.0396,0.15594 l -7.34882,0 z m 12.46254,-5.53204 0,13.07144 2.08906,0 0,-7.23001 c 0,-2.67072 1.43065,-4.41077 3.55931,-4.41077 1.66332,0 2.70537,1.0074 2.70537,2.59151 l 0,9.04927 2.05193,0 0,-9.90073 c 0,-2.16578 -1.6262,-3.55683 -4.13851,-3.55683 -1.93559,0 -3.17318,0.73512 -4.33157,2.59151 l 0,-2.20539 -1.93559,0 z m 18.53664,0 -2.16578,0 0,-3.59644 -2.04945,0 0,3.59644 -1.77966,0 0,1.70293 1.77966,0 0,9.86112 c 0,1.31432 0.88859,2.08905 2.51231,2.08905 0.50246,0 1.00739,-0.0396 1.70292,-0.19306 l 0,-1.74005 c -0.27227,0.0767 -0.6188,0.11385 -1.0074,0.11385 -0.88859,0 -1.15838,-0.26979 -1.15838,-1.19798 l 0,-8.93293 2.16578,0 0,-1.70293 z m 0.6188,13.07144"
     style="fill:#000000;stroke:none" />
  <path
     inkscape:connector-curvature="0"
     id="path3237"
     d="m 431.78778,59.107487 0,44.553273 c 0,14.85109 7.42554,22.27664 22.27663,22.27664 l 133.65983,0 c 14.85109,0 22.27664,-7.42555 22.27664,-22.27664 l 0,-44.553273 c 0,-14.86124 -7.42555,-22.276712 -22.27664,-22.276712 l -133.65983,0 c -14.85109,0 -22.27663,7.415472 -22.27663,22.276712 z"
     style="fill:#5f9e9f;stroke:none" />
  <path
     inkscape:connector-curvature="0"
     id="path3239"
     d="m 431.78778,59.107487 0,44.553273 c 0,14.85109 7.42554,22.27664 22.27663,22.27664 l 133.65983,0 c 14.85109,0 22.27664,-7.42555 22.27664,-22.27664 l 0,-44.553273 c 0,-14.86124 -7.42555,-22.276712 -22.27664,-22.276712 l -133.65983,0 c -14.85109,0 -22.27663,7.415472 -22.27663,22.276712 z"
     style="fill:none;stroke:#5f9e9f;stroke-width:1.39228988" />
  <path
     inkscape:connector-curvature="0"
     id="path3241"
     d="m 437.35694,42.400008 167.07478,0 0,77.968232 -167.07478,0 0,-77.968232 z"
     style="fill:#5f9e9f;stroke:none" />
  <path
     inkscape:connector-curvature="0"
     id="path3243"
     d="m 437.35694,42.400008 167.07478,0 0,77.968232 -167.07478,0 0,-77.968232 z"
     style="fill:none;stroke:#5f9e9f;stroke-width:1.39228988" />
  <path
     inkscape:connector-curvature="0"
     id="path3245"
     d="m 486.79375,81.809859 6.14835,-8.895803 -2.74498,0 -4.72017,7.155753 -4.6781,-7.155753 -2.78457,0 6.03201,8.895803 -6.45775,9.31906 2.82419,0 4.98749,-7.57901 4.98997,7.57901 2.86131,0 -6.45775,-9.31906 z m 30.43731,-3.24991 c -0.698,-3.98257 -3.01725,-5.915693 -7.00229,-5.915693 -2.43558,0 -4.4083,0.77226 -5.76222,2.242523 -1.66333,1.81678 -2.55192,4.40829 -2.55192,7.34881 0,3.01477 0.9282,5.56916 2.63112,7.34634 1.43066,1.43313 3.20784,2.12865 5.56916,2.12865 4.44543,0 6.96021,-2.39845 7.50228,-7.23248 l -2.39845,0 c -0.19307,1.2772 -0.46286,2.12618 -0.81186,2.82418 -0.77474,1.50739 -2.32172,2.35885 -4.25484,2.35885 -3.63604,0 -5.91569,-2.90091 -5.91569,-7.42554 0,-4.68057 2.20292,-7.54188 5.72262,-7.54188 1.47026,0 2.82419,0.42573 3.59644,1.12126 0.6584,0.61879 1.04453,1.39105 1.31433,2.74498 l 2.36132,0 z m 5.36619,-5.645893 -2.08905,0 0,18.214863 2.08905,0 0,-18.214863 z m 5.51966,5.143423 -2.08905,0 0,13.07144 2.08905,0 0,-13.07144 z m 0,-5.143423 -2.08905,0 0,2.631113 2.08905,0 0,-2.631113 z m 14.60852,12.375903 c 0,-2.00984 -0.15346,-3.21031 -0.50246,-4.17563 -0.85146,-2.12865 -2.86131,-3.44297 -5.29689,-3.44297 -3.63604,0 -5.99489,2.78458 -5.99489,7.07654 0,4.29444 2.28212,6.96268 5.91569,6.96268 3.01724,0 5.1063,-1.70292 5.60876,-4.56423 l -2.08906,0 c -0.57919,1.74005 -1.74005,2.63112 -3.4405,2.63112 -1.3168,0 -2.43805,-0.58167 -3.13358,-1.70293 -0.50246,-0.73513 -0.6584,-1.47026 -0.69552,-2.78458 l 9.62845,0 z m -9.59133,-1.70044 c 0.19307,-2.43806 1.66333,-3.98505 3.75238,-3.98505 2.04945,0 3.63604,1.70293 3.63604,3.82911 0,0.0396 0,0.11633 -0.0396,0.15594 l -7.34882,0 z m 12.46254,-5.53204 0,13.07144 2.08906,0 0,-7.23001 c 0,-2.67072 1.43065,-4.41077 3.55931,-4.41077 1.66332,0 2.70537,1.0074 2.70537,2.59151 l 0,9.04927 2.05193,0 0,-9.90073 c 0,-2.16578 -1.6262,-3.55683 -4.1385,-3.55683 -1.9356,0 -3.17319,0.73512 -4.33157,2.59151 l 0,-2.20539 -1.9356,0 z m 18.53664,0 -2.16578,0 0,-3.59644 -2.04945,0 0,3.59644 -1.77966,0 0,1.70293 1.77966,0 0,9.86112 c 0,1.31432 0.88859,2.08905 2.51231,2.08905 0.50246,0 1.0074,-0.0396 1.70292,-0.19306 l 0,-1.74005 c -0.27227,0.0767 -0.61879,0.11385 -1.0074,0.11385 -0.88859,0 -1.15838,-0.26979 -1.15838,-1.19798 l 0,-8.93293 2.16578,0 0,-1.70293 z m 0.6188,13.07144"
     style="fill:#000000;stroke:none" />
  <path
     inkscape:connector-curvature="0"
     id="path3247"
     d="m 164.46812,237.32059 0,44.55377 c 0,14.85109 7.42555,22.27664 22.27664,22.27664 l 133.65983,0 c 14.85109,0 22.27663,-7.42555 22.27663,-22.27664 l 0,-44.55377 c 0,-14.86124 -7.42554,-22.27664 -22.27663,-22.27664 l -133.65983,0 c -14.85109,0 -22.27664,7.4154 -22.27664,22.27664 z"
     style="fill:#5f9e9f;stroke:none" />
  <path
     inkscape:connector-curvature="0"
     id="path3249"
     d="m 164.46812,237.32059 0,44.55377 c 0,14.85109 7.42555,22.27664 22.27664,22.27664 l 133.65983,0 c 14.85109,0 22.27663,-7.42555 22.27663,-22.27664 l 0,-44.55377 c 0,-14.86124 -7.42554,-22.27664 -22.27663,-22.27664 l -133.65983,0 c -14.85109,0 -22.27664,7.4154 -22.27664,22.27664 z"
     style="fill:none;stroke:#5f9e9f;stroke-width:1.39228988" />
  <path
     inkscape:connector-curvature="0"
     id="path3251"
     d="m 170.03728,220.61311 167.07478,0 0,77.96873 -167.07478,0 0,-77.96873 z"
     style="fill:#5f9e9f;stroke:none" />
  <path
     inkscape:connector-curvature="0"
     id="path3253"
     d="m 170.03728,220.61311 167.07478,0 0,77.96873 -167.07478,0 0,-77.96873 z"
     style="fill:none;stroke:#5f9e9f;stroke-width:1.39228988" />
  <path
     inkscape:connector-curvature="0"
     id="path3255"
     d="m 213.19827,260.02296 6.14934,-8.8958 -2.74597,0 -4.71844,7.15575 -4.67958,-7.15575 -2.78458,0 6.03326,8.8958 -6.45849,9.31955 2.82319,0 4.98898,-7.5795 4.98897,7.5795 2.86206,0 -6.45874,-9.31955 z m 28.8126,-3.51971 c -0.0386,-3.59644 -2.47518,-5.64589 -6.69067,-5.64589 -3.98355,0 -6.45874,2.04945 -6.45874,5.33649 0,2.20539 1.19898,3.59644 3.55808,4.25484 l 4.52488,1.19799 c 2.32073,0.57919 3.36476,1.50788 3.36476,2.94101 0,0.96532 -0.54132,1.97024 -1.31482,2.51231 -0.69626,0.50246 -1.85638,0.77473 -3.32614,0.77473 -1.97223,0 -3.32591,-0.46533 -4.21549,-1.50986 -0.65741,-0.81186 -0.9668,-1.70045 -0.92819,-2.82171 l -2.2044,0 c 0.0386,1.66333 0.34801,2.78458 1.08289,3.78951 1.2376,1.70045 3.32591,2.59151 6.11049,2.59151 2.16578,0 3.94494,-0.50246 5.10506,-1.39353 1.23759,-0.96532 2.01108,-2.59151 2.01108,-4.17563 0,-2.24301 -1.39229,-3.90633 -3.86747,-4.56473 l -4.56349,-1.23759 c -2.20464,-0.57919 -3.01675,-1.27719 -3.01675,-2.70785 0,-1.81678 1.62446,-3.05437 4.06103,-3.05437 2.90042,0 4.52488,1.31432 4.56349,3.71277 l 2.2044,0 z m 14.61818,7.00031 c 0,-2.01034 -0.15346,-3.21081 -0.50247,-4.17613 -0.85022,-2.12865 -2.86131,-3.44298 -5.29787,-3.44298 -3.6353,0 -5.9944,2.78458 -5.9944,7.07705 0,4.29444 2.28162,6.96268 5.91717,6.96268 3.0165,0 5.10506,-1.70292 5.60777,-4.56423 l -2.08856,0 c -0.57993,1.74005 -1.7403,2.63112 -3.44198,2.63112 -1.31482,0 -2.43657,-0.58167 -3.1326,-1.70293 -0.5027,-0.73513 -0.6574,-1.47026 -0.69602,-2.78458 l 9.62896,0 z m -9.59034,-1.70094 c 0.19331,-2.43806 1.66282,-3.98505 3.75138,-3.98505 2.0497,0 3.63555,1.70293 3.63555,3.82911 0,0.0396 0,0.11633 -0.0389,0.15594 l -7.34807,0 z m 12.46402,-5.53204 0,13.07193 2.08658,0 0,-6.80675 c 0,-1.85688 0.46534,-3.09447 1.47026,-3.78999 0.6584,-0.50247 1.27719,-0.6188 2.70785,-0.65593 l 0,-2.12865 c -0.349,-0.0371 -0.50246,-0.0767 -0.77473,-0.0767 -1.35393,0 -2.39598,0.81186 -3.59644,2.74498 l 0,-2.35885 -1.89352,0 z m 13.71994,13.07193 5.02709,-13.07193 -2.35885,0 -3.67564,10.59675 -3.51971,-10.59675 -2.35885,0 4.60384,13.07193 2.28212,0 z m 18.21486,-5.83895 c 0,-2.01034 -0.15594,-3.21081 -0.50246,-4.17613 -0.85146,-2.12865 -2.86131,-3.44298 -5.29937,-3.44298 -3.63604,0 -5.99489,2.78458 -5.99489,7.07705 0,4.29444 2.28212,6.96268 5.91816,6.96268 3.01725,0 5.10383,-1.70292 5.60877,-4.56423 l -2.08906,0 c -0.58167,1.74005 -1.74005,2.63112 -3.44298,2.63112 -1.31432,0 -2.43557,-0.58167 -3.1311,-1.70293 -0.50494,-0.73513 -0.6584,-1.47026 -0.698,-2.78458 l 9.63093,0 z m -9.59133,-1.70094 c 0.19307,-2.43806 1.66332,-3.98505 3.75238,-3.98505 2.04945,0 3.63356,1.70293 3.63356,3.82911 0,0.0396 0,0.11633 -0.0371,0.15594 l -7.34882,0 z m 12.46254,-5.53204 0,13.07193 2.08906,0 0,-6.80675 c 0,-1.85688 0.46285,-3.09447 1.47025,-3.78999 0.65593,-0.50247 1.27472,-0.6188 2.70538,-0.65593 l 0,-2.12865 c -0.34653,-0.0371 -0.50246,-0.0767 -0.77226,-0.0767 -1.35392,0 -2.39845,0.81186 -3.59644,2.74498 l 0,-2.35885 -1.89599,0 z m 6.60379,13.07193"
     style="fill:#000000;stroke:none" />
  <path
     inkscape:connector-curvature="0"
     id="path3257"
     d="m 431.78778,237.32059 0,44.55377 c 0,14.85109 7.42554,22.27664 22.27663,22.27664 l 133.65983,0 c 14.85109,0 22.27664,-7.42555 22.27664,-22.27664 l 0,-44.55377 c 0,-14.86124 -7.42555,-22.27664 -22.27664,-22.27664 l -133.65983,0 c -14.85109,0 -22.27663,7.4154 -22.27663,22.27664 z"
     style="fill:#5f9e9f;stroke:none" />
  <path
     inkscape:connector-curvature="0"
     id="path3259"
     d="m 431.78778,237.32059 0,44.55377 c 0,14.85109 7.42554,22.27664 22.27663,22.27664 l 133.65983,0 c 14.85109,0 22.27664,-7.42555 22.27664,-22.27664 l 0,-44.55377 c 0,-14.86124 -7.42555,-22.27664 -22.27664,-22.27664 l -133.65983,0 c -14.85109,0 -22.27663,7.4154 -22.27663,22.27664 z"
     style="fill:none;stroke:#5f9e9f;stroke-width:1.39228988" />
  <path
     inkscape:connector-curvature="0"
     id="path3261"
     d="m 437.35694,220.61311 167.07478,0 0,77.96873 -167.07478,0 0,-77.96873 z"
     style="fill:#5f9e9f;stroke:none" />
  <path
     inkscape:connector-curvature="0"
     id="path3263"
     d="m 437.35694,220.61311 167.07478,0 0,77.96873 -167.07478,0 0,-77.96873 z"
     style="fill:none;stroke:#5f9e9f;stroke-width:1.39228988" />
  <path
     inkscape:connector-curvature="0"
     id="path3265"
     d="m 471.96988,256.77305 c -0.69553,-3.98257 -3.01477,-5.91569 -6.99981,-5.91569 -2.43558,0 -4.4083,0.77226 -5.76223,2.24252 -1.66332,1.81678 -2.55191,4.40829 -2.55191,7.34881 0,3.01527 0.92819,5.56965 2.62864,7.34684 1.43313,1.43313 3.21031,2.12865 5.56916,2.12865 4.4479,0 6.96269,-2.39845 7.50475,-7.23248 l -2.39845,0 c -0.19306,1.27719 -0.46533,2.12618 -0.81186,2.82418 -0.77473,1.50739 -2.32172,2.35885 -4.25483,2.35885 -3.63605,0 -5.91816,-2.90091 -5.91816,-7.42604 0,-4.68057 2.20538,-7.54188 5.72509,-7.54188 1.47026,0 2.82418,0.42573 3.59644,1.12126 0.6584,0.61879 1.04453,1.39105 1.31432,2.74498 l 2.35885,0 z m 8.38344,-0.8886 c -3.67317,0 -5.91816,2.62865 -5.91816,7.00031 0,4.4083 2.20539,7.03942 5.91816,7.03942 3.67317,0 5.91816,-2.63112 5.91816,-6.92308 0,-4.52513 -2.16578,-7.11665 -5.91816,-7.11665 z m 0,1.93312 c 2.35885,0 3.75238,1.89599 3.75238,5.14393 0,3.09397 -1.43066,5.02957 -3.75238,5.02957 -2.31924,0 -3.75237,-1.9356 -3.75237,-5.10631 0,-3.13407 1.43313,-5.06719 3.75237,-5.06719 z m 8.8661,-1.54699 0,13.07193 2.08906,0 0,-8.19829 c 0,-1.89599 1.39105,-3.44298 3.09398,-3.44298 1.54698,0 2.39845,0.96779 2.39845,2.63112 l 0,9.01015 2.12618,0 0,-8.19829 c 0,-1.89599 1.35392,-3.44298 3.05437,-3.44298 1.50986,0 2.43806,0.96779 2.43806,2.63112 l 0,9.01015 2.08905,0 0,-9.82201 c 0,-2.32172 -1.35392,-3.63605 -3.79198,-3.63605 -1.74005,0 -2.82171,0.54207 -4.02217,2.00985 -0.77226,-1.39105 -1.81678,-2.00985 -3.51971,-2.00985 -1.74005,0 -2.89844,0.6584 -4.02217,2.24252 l 0,-1.85639 -1.93312,0 z m 20.48709,18.52724 2.08905,0 0,-6.84636 c 1.08413,1.35393 2.32172,1.97272 4.02217,1.97272 3.36625,0 5.60876,-2.74745 5.60876,-6.88348 0,-4.41127 -2.16578,-7.15625 -5.64589,-7.15625 -1.74253,0 -3.17318,0.81186 -4.1385,2.35885 l 0,-1.97272 -1.93559,0 0,18.52724 z m 5.72509,-16.98025 c 2.31925,0 3.7895,2.04945 3.7895,5.14393 0,2.97764 -1.50738,4.98996 -3.7895,4.98996 -2.16578,0 -3.63604,-1.97272 -3.63604,-5.0667 0,-3.05487 1.47026,-5.06719 3.63604,-5.06719 z m 13.66053,-1.93312 c -3.67317,0 -5.91568,2.62865 -5.91568,7.00031 0,4.4083 2.20291,7.03942 5.91568,7.03942 3.67565,0 5.91816,-2.63112 5.91816,-6.92308 0,-4.52513 -2.16578,-7.11665 -5.91816,-7.11665 z m 0,1.93312 c 2.36132,0 3.75238,1.89599 3.75238,5.14393 0,3.09397 -1.43066,5.02957 -3.75238,5.02957 -2.31924,0 -3.7499,-1.9356 -3.7499,-5.10631 0,-3.13407 1.43066,-5.06719 3.7499,-5.06719 z m 18.0713,2.08906 c -0.0371,-2.59152 -1.74005,-4.02218 -4.7573,-4.02218 -3.05437,0 -5.02709,1.5866 -5.02709,3.98257 0,2.04945 1.04453,3.01774 4.1385,3.79248 l 1.97272,0.46286 c 1.43066,0.349 2.00985,0.88859 2.00985,1.81678 0,1.23759 -1.19799,2.05193 -3.05437,2.05193 -1.12126,0 -2.04945,-0.3094 -2.59152,-0.85147 -0.3094,-0.38613 -0.46286,-0.77473 -0.57919,-1.70292 l -2.20539,0 c 0.11634,3.01724 1.77966,4.4875 5.22264,4.4875 3.28704,0 5.37362,-1.62372 5.37362,-4.1385 0,-1.97272 -1.08166,-3.01725 -3.67317,-3.67367 l -2.00985,-0.46533 c -1.70293,-0.38613 -2.39845,-0.92819 -2.39845,-1.85639 0,-1.19799 1.04452,-1.97272 2.74497,-1.97272 1.66333,0 2.59152,0.69553 2.63112,2.08906 l 2.20291,0 z m 5.33897,-3.63605 -2.08905,0 0,13.07193 2.08905,0 0,-13.07193 z m 0,-5.14342 -2.08905,0 0,2.63111 2.08905,0 0,-2.63111 z m 8.1483,5.14342 -2.16331,0 0,-3.59644 -2.05192,0 0,3.59644 -1.77718,0 0,1.70293 1.77718,0 0,9.86162 c 0,1.31432 0.89106,2.08905 2.51478,2.08905 0.50246,0 1.00493,-0.0396 1.70045,-0.19306 l 0,-1.74005 c -0.26979,0.0767 -0.61879,0.11385 -1.00492,0.11385 -0.88859,0 -1.15839,-0.26979 -1.15839,-1.19798 l 0,-8.93343 2.16331,0 0,-1.70293 z m 7.42555,-0.38613 c -3.67317,0 -5.91569,2.62865 -5.91569,7.00031 0,4.4083 2.20291,7.03942 5.91569,7.03942 3.67564,0 5.91816,-2.63112 5.91816,-6.92308 0,-4.52513 -2.16579,-7.11665 -5.91816,-7.11665 z m 0,1.93312 c 2.36132,0 3.75237,1.89599 3.75237,5.14393 0,3.09397 -1.43065,5.02957 -3.75237,5.02957 -2.31925,0 -3.7499,-1.9356 -3.7499,-5.10631 0,-3.13407 1.43065,-5.06719 3.7499,-5.06719 z m 8.86857,-1.54699 0,13.07193 2.08658,0 0,-6.80675 c 0,-1.85688 0.46534,-3.09447 1.47026,-3.78999 0.6584,-0.50247 1.27719,-0.6188 2.70785,-0.65593 l 0,-2.12865 c -0.349,-0.0371 -0.50246,-0.0767 -0.77473,-0.0767 -1.35393,0 -2.39598,0.81186 -3.59644,2.74498 l 0,-2.35885 -1.89352,0 z m 6.60131,13.07193"
     style="fill:#000000;stroke:none" />
  <path
     inkscape:connector-curvature="0"
     id="path3267"
     d="M 219.59884,199.44758 176.16732,141.53352"
     style="fill:none;stroke:#2e4f4f;stroke-width:5.56915951" />
  <path
     inkscape:connector-curvature="0"
     id="path3277"
     d="m 284.57138,197.61125 27.11314,-54.24114"
     style="fill:none;stroke:#2e4f4f;stroke-width:5.56915951" />
  <path
     inkscape:connector-curvature="0"
     id="path3279"
     d="m 276.56352,213.97564 1.24749,-21.17518 14.93773,7.47505 -16.18522,13.70013 z"
     style="fill:#2e4f4f;fill-opacity:1;stroke:none" />
  <path
     inkscape:connector-curvature="0"
     id="path3283"
     d="m 319.69238,125.9374 -1.2475,21.16528 -14.93772,-7.4654 16.18522,-13.69988 z"
     style="fill:#2e4f4f;fill-opacity:1;stroke:none" />
  <path
     inkscape:connector-curvature="0"
     id="path3287"
     d="M 337.32493,205.37589 459.42071,135.60546"
     style="fill:none;stroke:#2e4f4f;stroke-width:5.56915951" />
  <path
     inkscape:connector-curvature="0"
     id="path3289"
     d="m 320.40459,215.04395 12.78184,-16.93049 8.28691,14.51224 -21.06875,2.41825 z"
     style="fill:#2e4f4f;fill-opacity:1;stroke:none" />
  <path
     inkscape:connector-curvature="0"
     id="path3293"
     d="m 475.62884,125.9374 -12.78184,16.92034 -8.28691,-14.50209 21.06875,-2.41825 z"
     style="fill:#2e4f4f;fill-opacity:1;stroke:none" />
  <path
     inkscape:connector-curvature="0"
     id="path3297"
     d="m 362.17328,259.59723 50.12244,0"
     style="fill:none;stroke:#2e4f4f;stroke-width:5.56915951" />
  <path
     inkscape:connector-curvature="0"
     id="path3299"
     d="m 342.68122,259.59723 19.49206,-8.35374 0,16.70797 -19.49206,-8.35423 z"
     style="fill:#2e4f4f;fill-opacity:1;stroke:none" />
  <path
     inkscape:connector-curvature="0"
     id="path3303"
     d="m 431.78778,259.59723 -19.49206,8.35423 0,-16.70797 19.49206,8.35374 z"
     style="fill:#2e4f4f;fill-opacity:1;stroke:none" />
  <path
     inkscape:connector-curvature="0"
     id="path3307"
     d="m 142.19148,448.94915 0,66.82991 c 0,22.27664 10.21013,33.41496 30.63038,33.41496 l 183.78226,0 c 20.42025,0 30.63038,-11.13832 30.63038,-33.41496 l 0,-66.82991 c 0,-22.27664 -10.21013,-33.41496 -30.63038,-33.41496 l -183.78226,0 c -20.42025,0 -30.63038,11.13832 -30.63038,33.41496 z"
     style="fill:#5f9e9f;stroke:none" />
  <path
     inkscape:connector-curvature="0"
     id="path3309"
     d="m 142.19148,448.94915 0,66.82991 c 0,22.27664 10.21013,33.41496 30.63038,33.41496 l 183.78226,0 c 20.42025,0 30.63038,-11.13832 30.63038,-33.41496 l 0,-66.82991 c 0,-22.27664 -10.21013,-33.41496 -30.63038,-33.41496 l -183.78226,0 c -20.42025,0 -30.63038,11.13832 -30.63038,33.41496 z"
     style="fill:none;stroke:#5f9e9f;stroke-width:1.39228988" />
  <path
     inkscape:connector-curvature="0"
     id="path3311"
     d="m 150.54522,423.88793 229.72907,0 0,116.95235 -229.72907,0 0,-116.95235 z"
     style="fill:#5f9e9f;stroke:none" />
  <path
     inkscape:connector-curvature="0"
     id="path3313"
     d="m 150.54522,423.88793 229.72907,0 0,116.95235 -229.72907,0 0,-116.95235 z"
     style="fill:none;stroke:#5f9e9f;stroke-width:1.39228988" />
  <path
     inkscape:connector-curvature="0"
     id="path3315"
     d="m 232.80641,485.72788 2.97789,-2.93805 6.41988,9.31906 2.74597,0 -7.50277,-10.78931 7.42554,-7.42555 -3.01675,0 -9.04976,9.24233 0,-9.24233 -2.32048,0 0,18.21486 2.32048,0 0,-6.38101 z m 25.21616,0.54206 c 0,-2.00985 -0.15593,-3.21031 -0.50246,-4.17563 -0.85146,-2.12866 -2.86255,-3.44298 -5.29912,-3.44298 -3.63529,0 -5.99464,2.78458 -5.99464,7.07655 0,4.29444 2.28187,6.96268 5.91742,6.96268 3.0165,0 5.10407,-1.70292 5.60901,-4.56423 l -2.08955,0 c -0.58018,1.74005 -1.74055,2.63112 -3.44224,2.63112 -1.31481,0 -2.43632,-0.58167 -3.13259,-1.70293 -0.5027,-0.73513 -0.6574,-1.47026 -0.69626,-2.78458 l 9.63043,0 z m -9.59157,-1.70045 c 0.19331,-2.43805 1.66307,-3.98504 3.75138,-3.98504 2.0497,0 3.6353,1.70292 3.6353,3.8291 0,0.0396 0,0.11634 -0.0386,0.15594 l -7.34807,0 z m 12.46279,-5.53203 0,13.07143 2.08905,0 0,-6.80675 c 0,-1.85638 0.46286,-3.09397 1.47026,-3.7895 0.65592,-0.50246 1.27472,-0.6188 2.70537,-0.65592 l 0,-2.12866 c -0.34652,-0.0371 -0.50246,-0.0767 -0.77226,-0.0767 -1.35392,0 -2.39845,0.81186 -3.59644,2.74498 l 0,-2.35885 -1.89598,0 z m 8.34383,0 0,13.07143 2.08906,0 0,-7.23 c 0,-2.67072 1.43065,-4.41078 3.55683,-4.41078 1.66333,0 2.70785,1.0074 2.70785,2.59152 l 0,9.04926 2.04945,0 0,-9.90072 c 0,-2.16579 -1.62372,-3.55684 -4.1385,-3.55684 -1.93312,0 -3.17071,0.73513 -4.33157,2.59152 l 0,-2.20539 -1.93312,0 z m 24.99439,7.23248 c 0,-2.00985 -0.15593,-3.21031 -0.50246,-4.17563 -0.85146,-2.12866 -2.86379,-3.44298 -5.29937,-3.44298 -3.63604,0 -5.99489,2.78458 -5.99489,7.07655 0,4.29444 2.28212,6.96268 5.91816,6.96268 3.01725,0 5.10383,-1.70292 5.60629,-4.56423 l -2.08658,0 c -0.58166,1.74005 -1.74005,2.63112 -3.44298,2.63112 -1.31432,0 -2.43557,-0.58167 -3.13358,-1.70293 -0.50246,-0.73513 -0.65592,-1.47026 -0.69552,-2.78458 l 9.63093,0 z m -9.59133,-1.70045 c 0.19307,-2.43805 1.66332,-3.98504 3.7499,-3.98504 2.05193,0 3.63604,1.70292 3.63604,3.8291 0,0.0396 0,0.11634 -0.0371,0.15594 l -7.34882,0 z m 14.51199,-10.67546 -2.08905,0 0,18.21486 2.08905,0 0,-18.21486 z m 1.76976,18.21486"
     style="fill:#000000;stroke:none" />
  <path
     inkscape:connector-curvature="0"
     id="path3317"
     d="m 164.46812,426.67251 0,22.27664 c 0,7.41564 3.71277,11.13831 11.13832,11.13831 l 66.82991,0 c 7.42555,0 11.13832,-3.72267 11.13832,-11.13831 l 0,-22.27664 c 0,-7.42555 -3.71277,-11.13832 -11.13832,-11.13832 l -66.82991,0 c -7.42555,0 -11.13832,3.71277 -11.13832,11.13832 z"
     style="fill:#2e4f4f;stroke:none" />
  <path
     inkscape:connector-curvature="0"
     id="path3319"
     d="m 164.46812,426.67251 0,22.27664 c 0,7.41564 3.71277,11.13831 11.13832,11.13831 l 66.82991,0 c 7.42555,0 11.13832,-3.72267 11.13832,-11.13831 l 0,-22.27664 c 0,-7.42555 -3.71277,-11.13832 -11.13832,-11.13832 l -66.82991,0 c -7.42555,0 -11.13832,3.71277 -11.13832,11.13832 z"
     style="fill:none;stroke:#2e4f4f;stroke-width:1.39228988" />
  <path
     inkscape:connector-curvature="0"
     id="path3321"
     d="m 167.2527,418.31877 83.53739,0 0,38.98412 -83.53739,0 0,-38.98412 z"
     style="fill:#2e4f4f;stroke:none" />
  <path
     inkscape:connector-curvature="0"
     id="path3323"
     d="m 167.2527,418.31877 83.53739,0 0,38.98412 -83.53739,0 0,-38.98412 z"
     style="fill:none;stroke:#2e4f4f;stroke-width:1.39228988" />
  <path
     inkscape:connector-curvature="0"
     id="path3325"
     d="m 186.17423,441.1746 2.97814,-2.93804 6.41988,9.31906 2.74596,0 -7.50302,-10.78932 7.42555,-7.42555 -3.0165,0 -9.05001,9.24233 0,-9.24233 -2.32048,0 0,18.21487 2.32048,0 0,-6.38102 z m 24.09441,6.38102 5.10506,-15.23722 0,15.23722 2.2044,0 0,-18.21487 -3.20982,0 -5.29862,15.85602 -5.3756,-15.85602 -3.24867,0 0,18.21487 2.20439,0 0,-15.23722 5.18229,15.23722 2.43657,0 z m 24.08476,-12.83877 c -0.0386,-3.59644 -2.47518,-5.64589 -6.69091,-5.64589 -3.98331,0 -6.4585,2.04945 -6.4585,5.33649 0,2.20539 1.19873,3.59644 3.55808,4.25484 l 4.52488,1.19799 c 2.32048,0.57919 3.36476,1.50738 3.36476,2.94051 0,0.96532 -0.54157,1.97025 -1.31506,2.51231 -0.69602,0.50247 -1.85639,0.77474 -3.32591,0.77474 -1.97247,0 -3.32614,-0.46534 -4.21548,-1.50987 -0.65765,-0.81186 -0.96705,-1.70045 -0.92819,-2.8217 l -2.20465,0 c 0.0389,1.66332 0.34826,2.78458 1.0829,3.7895 1.23759,1.70045 3.32615,2.59152 6.11073,2.59152 2.16578,0 3.94469,-0.50247 5.10506,-1.39353 1.23759,-0.96532 2.01108,-2.59152 2.01108,-4.17563 0,-2.24252 -1.39229,-3.90584 -3.86747,-4.56424 l -4.56374,-1.23759 c -2.2044,-0.57919 -3.0165,-1.27719 -3.0165,-2.70785 0,-1.81678 1.62421,-3.05437 4.06078,-3.05437 2.90067,0 4.52488,1.31432 4.56374,3.71277 l 2.2044,0 z m 1.81777,12.83877"
     style="fill:#000000;stroke:none" />
  <path
     inkscape:connector-curvature="0"
     id="path3327"
     d="m 275.85131,426.67251 0,22.27664 c 0,7.41564 3.71277,11.13831 11.13832,11.13831 l 66.82991,0 c 7.42555,0 11.13832,-3.72267 11.13832,-11.13831 l 0,-22.27664 c 0,-7.42555 -3.71277,-11.13832 -11.13832,-11.13832 l -66.82991,0 c -7.42555,0 -11.13832,3.71277 -11.13832,11.13832 z"
     style="fill:#2e4f4f;stroke:none" />
  <path
     inkscape:connector-curvature="0"
     id="path3329"
     d="m 275.85131,426.67251 0,22.27664 c 0,7.41564 3.71277,11.13831 11.13832,11.13831 l 66.82991,0 c 7.42555,0 11.13832,-3.72267 11.13832,-11.13831 l 0,-22.27664 c 0,-7.42555 -3.71277,-11.13832 -11.13832,-11.13832 l -66.82991,0 c -7.42555,0 -11.13832,3.71277 -11.13832,11.13832 z"
     style="fill:none;stroke:#2e4f4f;stroke-width:1.39228988" />
  <path
     inkscape:connector-curvature="0"
     id="path3331"
     d="m 278.63589,418.31877 83.53739,0 0,38.98412 -83.53739,0 0,-38.98412 z"
     style="fill:#2e4f4f;stroke:none" />
  <path
     inkscape:connector-curvature="0"
     id="path3333"
     d="m 278.63589,418.31877 83.53739,0 0,38.98412 -83.53739,0 0,-38.98412 z"
     style="fill:none;stroke:#2e4f4f;stroke-width:1.39228988" />
  <path
     inkscape:connector-curvature="0"
     id="path3335"
     d="m 298.38784,441.71666 c 0,-2.00984 -0.15346,-3.21031 -0.50246,-4.17563 -0.84899,-2.12865 -2.86131,-3.44298 -5.29689,-3.44298 -3.63604,0 -5.99489,2.78458 -5.99489,7.07655 0,4.29444 2.28212,6.96269 5.91568,6.96269 3.01725,0 5.10631,-1.70293 5.60877,-4.56424 l -2.08906,0 c -0.57919,1.74005 -1.74005,2.63112 -3.4405,2.63112 -1.3168,0 -2.43805,-0.58167 -3.13358,-1.70293 -0.50246,-0.73513 -0.6584,-1.47025 -0.69553,-2.78458 l 9.62846,0 z m -9.59133,-1.70045 c 0.19554,-2.43805 1.66332,-3.98504 3.75238,-3.98504 2.04945,0 3.63604,1.70293 3.63604,3.82911 0,0.0396 0,0.11633 -0.0396,0.15593 l -7.34882,0 z m 17.84111,7.53941 5.0271,-13.07144 -2.35885,0 -3.67565,10.59626 -3.5197,-10.59626 -2.35885,0 4.60384,13.07144 2.28211,0 z m 17.78914,-18.21487 -2.08906,0 0,6.76715 c -0.88859,-1.31432 -2.28211,-2.00985 -4.02217,-2.00985 -3.40337,0 -5.60628,2.70785 -5.60628,6.88349 0,4.40829 2.16578,7.15575 5.68549,7.15575 1.77718,0 3.05437,-0.69553 4.17563,-2.32172 l 0,1.74005 1.85639,0 0,-18.21487 z m -5.76223,6.69042 c 2.24252,0 3.67317,2.01232 3.67317,5.14343 0,3.01725 -1.43065,4.98997 -3.63604,4.98997 -2.31924,0 -3.82663,-2.01233 -3.82663,-5.0667 0,-3.01725 1.50739,-5.0667 3.7895,-5.0667 z m 20.12076,5.68549 c 0,-2.00984 -0.15594,-3.21031 -0.50246,-4.17563 -0.85147,-2.12865 -2.86379,-3.44298 -5.29937,-3.44298 -3.63604,0 -5.99489,2.78458 -5.99489,7.07655 0,4.29444 2.28212,6.96269 5.91816,6.96269 3.01725,0 5.10383,-1.70293 5.60629,-4.56424 l -2.08658,0 c -0.58167,1.74005 -1.74005,2.63112 -3.44298,2.63112 -1.31432,0 -2.43558,-0.58167 -3.13358,-1.70293 -0.50246,-0.73513 -0.65592,-1.47025 -0.69553,-2.78458 l 9.63094,0 z m -9.59133,-1.70045 c 0.19306,-2.43805 1.66332,-3.98504 3.7499,-3.98504 2.05192,0 3.63604,1.70293 3.63604,3.82911 0,0.0396 0,0.11633 -0.0371,0.15593 l -7.34881,0 z m 17.83863,7.53941 5.0271,-13.07144 -2.35885,0 -3.67317,10.59626 -3.51971,-10.59626 -2.35885,0 4.60137,13.07144 2.28211,0 z m 5.41323,0"
     style="fill:#000000;stroke:none" />
  <path
     inkscape:connector-curvature="0"
     id="path3337"
     d="m 208.18033,396.62132 18.38961,-73.55746"
     style="fill:none;stroke:#2e4f4f;stroke-width:5.56915951" />
  <path
     inkscape:connector-curvature="0"
     id="path3339"
     d="m 203.45224,415.53419 -3.37442,-20.94252 16.20477,4.06178 -12.83035,16.88074 z"
     style="fill:#2e4f4f;fill-opacity:1;stroke:none" />
  <path
     inkscape:connector-curvature="0"
     id="path3343"
     d="m 231.29803,304.151 3.37442,20.93261 -16.20477,-4.05187 12.83035,-16.88074 z"
     style="fill:#2e4f4f;fill-opacity:1;stroke:none" />
  <path
     inkscape:connector-curvature="0"
     id="path3347"
     d="M 322.41443,396.68073 303.07831,323.00446"
     style="fill:none;stroke:#2e4f4f;stroke-width:5.56915951" />
  <path
     inkscape:connector-curvature="0"
     id="path3349"
     d="m 327.3648,415.53419 -13.03184,-16.73718 16.16542,-4.24494 -3.13358,20.98212 z"
     style="fill:#2e4f4f;fill-opacity:1;stroke:none" />
  <path
     inkscape:connector-curvature="0"
     id="path3353"
     d="m 298.12795,304.151 13.03431,16.72728 -16.16789,4.24494 3.13358,-20.97222 z"
     style="fill:#2e4f4f;fill-opacity:1;stroke:none" />
  <path
     inkscape:connector-curvature="0"
     id="path3275"
     d="m 164.96163,126.74853 18.38021,10.57645 -13.37193,10.02672 -5.00828,-20.60317 z"
     style="fill:#2e4f4f;fill-rule:evenodd;stroke:none" />
  <path
     inkscape:connector-curvature="0"
     id="path3271"
     d="m 230.30315,214.33148 -18.3802,-10.58635 13.37192,-10.01706 5.00828,20.60341 z"
     style="fill:#2e4f4f;fill-rule:evenodd;stroke:none" />
</svg>
